<svg id="Layer_1" data-name="Layer 1" xmlns="http://www.w3.org/2000/svg" xmlns:xlink="http://www.w3.org/1999/xlink" viewBox="0 0 203.95 214.87"><defs><style>.cls-1{fill:url(#linear-gradient);}.cls-2{fill:url(#linear-gradient-2);}.cls-3{fill:url(#linear-gradient-3);}</style><linearGradient id="linear-gradient" x1="53.81" y1="59.27" x2="148.48" y2="153.94" gradientUnits="userSpaceOnUse"><stop offset="0" stop-color="#0f123d"/><stop offset="1" stop-color="#502c85"/></linearGradient><linearGradient id="linear-gradient-2" x1="70.99" y1="126.07" x2="126.32" y2="181.39" gradientUnits="userSpaceOnUse"><stop offset="0" stop-color="#00beda"/><stop offset="0.04" stop-color="#04b6d5"/><stop offset="0.37" stop-color="#257bb3"/><stop offset="0.65" stop-color="#3c509a"/><stop offset="0.87" stop-color="#4b368b"/><stop offset="1" stop-color="#502c85"/></linearGradient><linearGradient id="linear-gradient-3" x1="76.49" y1="32.33" x2="114.3" y2="70.14" xlink:href="#linear-gradient-2"/></defs><path class="cls-1" d="M92.52,58C78.81,44.29,53.57,56.43,39.87,70.14a35.09,35.09,0,0,0,0,49.62L57.52,137.4l54.12,18c13.71,13.7,38.74,3.06,52.44-10.65a35.06,35.06,0,0,0,0-49.61L146.44,77.47Z"/><path class="cls-2" d="M78.82,116.1a5,5,0,0,1,7,0l28.64,28.63a35.06,35.06,0,0,0,49.61,0l-49.61,49.62a35.08,35.08,0,0,1-49.62,0L36.21,165.72a5,5,0,0,1,0-7Z"/><path class="cls-3" d="M39.87,70.14,89.49,20.52a35.07,35.07,0,0,1,49.62,0l28.63,28.63a5,5,0,0,1,0,7L125.13,98.77a4.94,4.94,0,0,1-7,0L89.49,70.14A35.07,35.07,0,0,0,39.87,70.14Z"/></svg>